<svg xmlns="http://www.w3.org/2000/svg" xmlns:xlink="http://www.w3.org/1999/xlink" width="76" height="70" viewBox="0 0 76 70"><defs><path id="v7m5a" d="M927.747 1580.062c-5.508 0-10 4.492-10 10 0 5.507 4.492 10 10 10s10-4.493 10-10c0-5.508-4.492-10-10-10zm35 25c-2.734 0-5 2.265-5 5 0 2.773 2.266 5 5 5 2.773 0 5-2.266 5-5 0-2.735-2.266-5-5-5zm0-40c-2.734 0-5 2.265-5 5 0 2.773 2.266 5 5 5 2.773 0 5-2.266 5-5 0-2.735-2.266-5-5-5zm-10 28.671c0 .508-.39 1.094-.898 1.172l-6.055.938c-.313 1.015-.742 1.992-1.25 2.968 1.094 1.563 2.265 3.008 3.516 4.493.156.234.273.468.273.781 0 .273-.078.547-.273.742-.782 1.055-5.157 5.82-6.29 5.82a1.47 1.47 0 0 1-.82-.273l-4.492-3.516c-.977.508-1.953.899-3.008 1.211-.195 1.992-.39 4.14-.898 6.055-.157.547-.625.937-1.172.937h-7.266c-.547 0-1.094-.43-1.172-.976l-.898-5.977c-1.016-.312-1.992-.742-2.93-1.21l-4.61 3.476c-.194.195-.507.273-.78.273a1.26 1.26 0 0 1-.82-.312c-1.016-.938-5.626-5.117-5.626-6.25 0-.273.117-.508.274-.742 1.133-1.485 2.304-2.93 3.437-4.454-.547-1.054-1.015-2.109-1.367-3.202l-5.937-.938c-.547-.078-.938-.586-.938-1.133v-7.226c0-.509.39-1.094.898-1.172l6.055-.938c.313-1.015.742-1.992 1.25-2.969-1.094-1.562-2.265-3.008-3.515-4.492-.157-.234-.274-.508-.274-.781 0-.274.078-.547.274-.781.78-1.055 5.156-5.782 6.289-5.782.312 0 .586.118.82.274l4.492 3.515a20.361 20.361 0 0 1 3.008-1.25c.195-1.953.39-4.101.898-6.015.157-.547.625-.938 1.172-.938h7.266c.547 0 1.094.43 1.172.977l.898 5.977c1.016.312 1.992.742 2.93 1.21l4.61-3.476c.234-.195.507-.274.78-.274.313 0 .586.118.82.313 1.016.937 5.626 5.156 5.626 6.25 0 .273-.117.508-.274.742-1.132 1.523-2.304 2.93-3.398 4.453.508 1.055.977 2.11 1.328 3.203l5.938.899c.546.117.937.625.937 1.172zm25 19.063c0 .586-5.04 1.133-5.82 1.21a9.489 9.489 0 0 1-1.172 2.032c.351.781 1.992 4.687 1.992 5.39 0 .118-.04.196-.156.274-.469.273-4.649 2.773-4.844 2.773-.508 0-3.437-3.906-3.828-4.492-.39.04-.781.079-1.172.079-.39 0-.781-.04-1.172-.079-.39.586-3.32 4.492-3.828 4.492-.195 0-4.375-2.5-4.844-2.773a.338.338 0 0 1-.156-.273c0-.664 1.64-4.61 1.992-5.391a9.489 9.489 0 0 1-1.172-2.031c-.78-.078-5.82-.625-5.82-1.211v-5.469c0-.586 5.04-1.133 5.82-1.211.313-.703.703-1.406 1.172-2.03-.351-.782-1.992-4.728-1.992-5.392 0-.078.04-.195.156-.273.469-.235 4.649-2.734 4.844-2.734.508 0 3.438 3.867 3.828 4.452.39-.038.781-.078 1.172-.078.39 0 .781.04 1.172.078 1.094-1.523 2.266-3.046 3.594-4.374l.234-.078c.195 0 4.375 2.46 4.844 2.734a.338.338 0 0 1 .156.273c0 .703-1.64 4.61-1.992 5.391.469.625.86 1.328 1.172 2.031.781.078 5.82.625 5.82 1.211zm0-40c0 .586-5.04 1.133-5.82 1.21a9.488 9.488 0 0 1-1.172 2.032c.351.781 1.992 4.688 1.992 5.39 0 .118-.04.196-.156.274-.469.274-4.649 2.773-4.844 2.773-.508 0-3.437-3.906-3.828-4.492-.39.04-.781.079-1.172.079-.39 0-.781-.04-1.172-.079-.39.586-3.32 4.492-3.828 4.492-.195 0-4.375-2.5-4.844-2.773a.339.339 0 0 1-.156-.273c0-.664 1.64-4.61 1.992-5.391a9.487 9.487 0 0 1-1.172-2.031c-.78-.078-5.82-.625-5.82-1.211v-5.469c0-.586 5.04-1.133 5.82-1.211.313-.703.703-1.406 1.172-2.031-.351-.782-1.992-4.727-1.992-5.391 0-.078.04-.195.156-.273.469-.235 4.649-2.734 4.844-2.734.508 0 3.438 3.867 3.828 4.453.39-.04.781-.079 1.172-.079.39 0 .781.04 1.172.079 1.094-1.524 2.266-3.047 3.594-4.375l.234-.078c.195 0 4.375 2.46 4.844 2.734a.339.339 0 0 1 .156.273c0 .703-1.64 4.61-1.992 5.391.469.625.86 1.328 1.172 2.03.781.08 5.82.626 5.82 1.212z"/></defs><g><g transform="translate(-902 -1555)"><use fill="#c8535a" xlink:href="#v7m5a"/></g></g></svg>