<svg xmlns="http://www.w3.org/2000/svg" xmlns:xlink="http://www.w3.org/1999/xlink" width="65" height="64" viewBox="0 0 65 64"><defs><path id="97cha" d="M1242.75 1570.5a3.75 3.75 0 0 1-7.5 0 3.75 3.75 0 0 1 7.5 0zm8.75-11.25c0-.704-.625-1.25-1.328-1.25-13.594 0-21.055 3.125-30.82 12.851-2.227 2.266-4.532 4.844-6.875 7.618l-14.805.78c-.39.04-.781.274-1.016.626l-8.75 15c-.273.468-.195 1.094.195 1.523l2.5 2.5c.235.235.586.352.899.352.117 0 .234 0 .352-.04l10.78-3.32 10.977 10.977-3.32 10.781c-.117.43 0 .899.313 1.25l2.5 2.5c.273.235.585.352.898.352.234 0 .43-.04.625-.156l15-8.75c.352-.235.586-.626.625-1.016l.781-14.805c2.774-2.344 5.352-4.648 7.617-6.875 9.258-9.296 12.852-17.93 12.852-30.898z"/></defs><g><g transform="translate(-1187 -1558)"><use fill="#c8535a" xlink:href="#97cha"/></g></g></svg>