<svg xmlns="http://www.w3.org/2000/svg" xmlns:xlink="http://www.w3.org/1999/xlink" width="64" height="64" viewBox="0 0 64 64"><defs><path id="r31aa" d="M684.83 1569.091l-4.18-4.18-11.445 11.446 4.18 4.18zm5.312 1.758l-50.234 50.235c-.469.468-1.094.703-1.758.703-.664 0-1.289-.235-1.758-.703l-7.734-7.735c-.469-.468-.703-1.093-.703-1.757 0-.665.234-1.29.703-1.758l50.234-50.235c.47-.468 1.094-.703 1.758-.703.664 0 1.29.235 1.758.703l7.734 7.735c.47.469.703 1.093.703 1.757 0 .665-.234 1.29-.703 1.758zm-48.242-8.008l-3.828 1.172-1.172 3.828-1.172-3.828-3.828-1.172 3.828-1.171 1.172-3.828 1.172 3.828zm17.5 7.5l-7.656 2.344-2.344 7.657-2.344-7.657-7.656-2.344 7.656-2.343 2.344-7.656 2.344 7.656zm32.5 17.5l-3.828 1.172-1.172 3.828-1.172-3.828-3.828-1.171 3.828-1.172 1.172-3.829 1.172 3.829zm-25-25l-3.828 1.172-1.172 3.828-1.172-3.828-3.828-1.172 3.828-1.171 1.172-3.828 1.172 3.828z"/></defs><g><g transform="translate(-628 -1558)"><use fill="#c8535a" xlink:href="#r31aa"/></g></g></svg>