<?xml version="1.0" encoding="utf-8"?>
<!-- Generator: Adobe Illustrator 22.1.0, SVG Export Plug-In . SVG Version: 6.00 Build 0)  -->
<svg version="1.1" xmlns="http://www.w3.org/2000/svg" xmlns:xlink="http://www.w3.org/1999/xlink" x="0px" y="0px"
	 viewBox="0 0 32 32" style="enable-background:new 0 0 32 32;" xml:space="preserve">
<style type="text/css">
	.st0{display:none;}
	.st1{display:inline;fill:#479F00;}
	.st2{opacity:0.3;fill:#FFFFFF;}
</style>
<g id="Слой_3" class="st0">
	<rect y="-0.1" class="st1" width="32.1" height="32.1"/>
</g>
<g id="Layer_1">
</g>
<g id="Слой_2">
	<path class="st2" d="M28.1-0.1H4c-2.2,0-4,1.8-4,4V28c0,2.2,1.8,4,4,4h24.1c2.2,0,4-1.8,4-4V3.9C32.1,1.7,30.3-0.1,28.1-0.1z
		 M23.9,20.1l-0.6,0.6c-0.6,0.6-1.6,0.6-2.2,0L16,15.6l-5.1,5.1c-0.6,0.6-1.6,0.6-2.2,0l-0.6-0.6c-0.6-0.6-0.6-1.6,0-2.2l6.7-6.7
		c0.3-0.3,0.8-0.5,1.2-0.5c0.4,0,0.9,0.1,1.2,0.5l6.7,6.7C24.5,18.5,24.5,19.5,23.9,20.1z"/>
</g>
</svg>
