<svg xmlns="http://www.w3.org/2000/svg" xmlns:xlink="http://www.w3.org/1999/xlink" width="46" height="69"><defs><path id="a" d="M389.86 1576.138c0-4.956-5.848-7.143-10-7.143-.76 0-1.43.67-1.43 1.428 0 .76.67 1.429 1.43 1.429 2.366 0 7.143 1.206 7.143 4.286 0 .76.67 1.429 1.429 1.429s1.428-.67 1.428-1.429zm7.144 0c0 2.857-1.161 5.85-3.036 8.036-.848.983-1.83 1.92-2.724 2.947-3.17 3.796-5.848 8.26-6.295 13.305h-10.18c-.446-5.045-3.125-9.51-6.295-13.305-.893-1.026-1.875-1.964-2.723-2.947-1.875-2.187-3.036-5.179-3.036-8.036 0-8.93 9.063-14.287 17.144-14.287 8.082 0 17.145 5.358 17.145 14.287zm5.715 0c0-12.144-11.564-20.002-22.86-20.002-11.295 0-22.859 7.858-22.859 20.002 0 4.599 1.518 8.572 4.599 11.966 3.08 3.393 7.143 8.17 7.5 12.948a4.291 4.291 0 0 0-2.098 3.66c0 1.072.402 2.099 1.116 2.858a4.172 4.172 0 0 0-1.116 2.857c0 1.474.759 2.813 2.01 3.617-.358.625-.581 1.384-.581 2.098 0 2.902 2.277 4.286 4.866 4.286 1.161 2.59 3.75 4.287 6.563 4.287 2.813 0 5.403-1.697 6.563-4.287 2.59 0 4.867-1.384 4.867-4.286 0-.714-.223-1.473-.58-2.098 1.25-.804 2.009-2.143 2.009-3.617a4.172 4.172 0 0 0-1.116-2.857 4.173 4.173 0 0 0 1.116-2.858 4.291 4.291 0 0 0-2.099-3.66c.358-4.778 4.42-9.555 7.501-12.948 3.08-3.394 4.599-7.367 4.599-11.966z"/></defs><use fill="#df5c64" xlink:href="#a" transform="translate(-357 -1556)"/></svg>