<svg xmlns="http://www.w3.org/2000/svg" xmlns:xlink="http://www.w3.org/1999/xlink" width="105" height="142" viewBox="0 0 105 142"><defs><path id="ffena" d="M374.886 2554.412c-5.458 0-4.618 2.447-7.557 2.869-2.939.42.595-1.185-8.222.498-8.816 1.686-11.93 13.053-12.35 17.265-.42 4.21-.524 16.046-.245 22.362.84 3.789-2.099 3.789-2.099 3.789-5.282-.34-2.907 16.17-2.907 16.17.759 4.068-.274 6.095 7.549 9.246 3.726 10.645 13.46 16.275 13.46 16.275s.049 6.57.196 11.432c-.796-.399 2.718 12.425-21.581 16.024-24.3 3.593-28.953 11.488-33.534 15.881-4.58 4.397-4.403 25.7-4.403 25.7l156.822.085s-1.164-21.388-5.746-25.785c-4.58-4.393-9.571-12.288-33.87-15.881-23.624-3.429-19.74-16.072-19.907-16.83.044-1.916.3-10.04.3-10.04s8.25-6.53 11.975-17.177c5.863-3.712 8.097-4.23 9.066-8.509 0 0 1.725-16.68-3.811-16.595 0 0-2.625.847-1.784-2.944.84-3.79.56-15.625.14-19.835-.42-4.21.212-16.246-8.604-17.93-6.018-1.124-6.803-.012-9.742-.433-2.938-.421-6.437-8.056-11.895-8.056z"/></defs><g><g clip-path="url(#clip-361)" transform="translate(-328 -2552)"><use fill="#5b4b59" xlink:href="#ffena"/></g></g></svg>