<svg xmlns="http://www.w3.org/2000/svg" xmlns:xlink="http://www.w3.org/1999/xlink" width="14" height="14"><defs><path id="a" d="M734.115 2823.868h-2.945v8.846h2.945zm.188-2.732c-.01-.866-.634-1.526-1.643-1.526-1 0-1.66.66-1.66 1.526 0 .848.634 1.527 1.625 1.527h.017c1.027 0 1.67-.679 1.66-1.527zm10.408 6.507c0-2.713-1.446-3.98-3.383-3.98-1.565 0-2.264.856-2.651 1.462v-1.257h-2.937s.036.83 0 8.846h2.937v-4.937c0-.267.026-.526.098-.723.214-.526.696-1.07 1.508-1.07 1.063 0 1.491.811 1.491 1.999v4.73h2.937z"/></defs><use fill="#fff" xlink:href="#a" transform="translate(-731 -2819)"/></svg>