<svg xmlns="http://www.w3.org/2000/svg" xmlns:xlink="http://www.w3.org/1999/xlink" width="15" height="12"><defs><path id="a" d="M644.46 2821.93a5.774 5.774 0 0 1-1.66.447 2.874 2.874 0 0 0 1.268-1.589 5.674 5.674 0 0 1-1.83.696 2.877 2.877 0 0 0-2.107-.91 2.882 2.882 0 0 0-2.883 2.883c0 .223.027.446.072.66a8.194 8.194 0 0 1-5.945-3.017 2.883 2.883 0 0 0 .893 3.857 2.903 2.903 0 0 1-1.304-.367v.036c0 1.402.99 2.562 2.312 2.83a3.05 3.05 0 0 1-1.303.054 2.888 2.888 0 0 0 2.695 2 5.774 5.774 0 0 1-3.579 1.23c-.241 0-.464-.008-.696-.034a8.15 8.15 0 0 0 4.427 1.294c5.302 0 8.204-4.392 8.204-8.204 0-.125 0-.25-.01-.375a6.203 6.203 0 0 0 1.447-1.49z"/></defs><use fill="#fff" xlink:href="#a" transform="translate(-630 -2820)"/></svg>