<svg xmlns="http://www.w3.org/2000/svg" xmlns:xlink="http://www.w3.org/1999/xlink" width="15" height="16"><defs><path id="a" d="M686.74 2828.786c-.152-.018-.295-.018-.447-.018-1.464 0-3.642.465-3.642 2.321 0 1.714 1.928 2.375 3.357 2.375 1.33 0 2.811-.536 2.811-2.098 0-1.25-1.169-1.946-2.08-2.58zm-1.375-8.712c-1.17 0-1.74 1.035-1.74 2.089 0 1.357.892 3.481 2.48 3.481 1.224 0 1.643-.884 1.643-1.973 0-1.357-.732-3.597-2.383-3.597zm5.115-.643l-1.205.705h-1.205c.883.554 1.33 1.634 1.33 2.634 0 2.365-2 2.544-2 3.722 0 1.151 2.678 1.607 2.678 4.106 0 1.027-.49 1.857-1.25 2.518-1.026.883-2.428 1.169-3.749 1.169-1.669 0-4.079-.714-4.079-2.785 0-.42.143-.83.33-1.205.795-1.607 3.276-2.018 4.874-2.062-.295-.384-.571-.83-.571-1.33 0-.295.107-.491.196-.768a4.98 4.98 0 0 1-.625.044c-1.731 0-3.231-1.276-3.231-3.07 0-1.696 1.312-3.142 2.937-3.5a8.029 8.029 0 0 1 1.669-.178zm5.373 3.428h-2.285v2.285h-1.142v-2.285h-2.285v-1.142h2.285v-2.286h1.142v2.286h2.285z"/></defs><use fill="#fff" xlink:href="#a" transform="translate(-681 -2819)"/></svg>